<?xml version="1.0" encoding="utf-8"?>
<!-- Generator: Adobe Illustrator 19.0.0, SVG Export Plug-In . SVG Version: 6.00 Build 0)  -->
<svg version="1.1" id="Layer_1" xmlns="http://www.w3.org/2000/svg" xmlns:xlink="http://www.w3.org/1999/xlink" x="0px" y="0px"
	 viewBox="1024.4 -253 795.6 913.5" style="enable-background:new 1024.4 -253 795.6 913.5;" xml:space="preserve">
<style type="text/css">
	.st0{fill:#FFFFFF;}
</style>
<path class="st0" d="M1292.5,175.2v-335.1c0-12.4,1.2-19.9,22.3-19.9h284.2c49.7,0,77,42.2,96.8,121.6l16.1,63.3h48.4
	c8.7-180,16.1-258.2,16.1-258.2s-121.6,13.6-193.6,13.6h-363.6l-194.9-6.2v52.1l65.8,12.4c45.9,8.7,57.1,18.6,60.8,60.8
	c0,0,3.7,124.1,3.7,328.9c0,204.8-3.7,327.7-3.7,327.7c0,37.2-14.9,50.9-60.8,59.6l-65.8,12.4v52.1l194.9-6.2h325.2
	c73.2,0,243.3,6.2,243.3,6.2c3.7-44.7,28.6-247,32.3-269.3h-45.9l-48.4,110.5c-38.5,86.9-94.3,93.1-156.4,93.1h-184.9
	c-62.1,0-91.9-24.8-91.9-78.2v-283c0,0,135.3,0,182.4,3.7c34.8,2.5,55.8,12.4,67,60.8l14.9,64.5h53.3l-3.7-162.6l7.4-163.8h-53.4
	l-17.4,72c-11.2,47.2-18.6,55.9-67,60.8c-54.6,6.2-183.7,5-183.7,5L1292.5,175.2L1292.5,175.2L1292.5,175.2L1292.5,175.2z"/>
</svg>
