<?xml version="1.0" encoding="utf-8"?>
<!-- Generator: Adobe Illustrator 19.0.0, SVG Export Plug-In . SVG Version: 6.00 Build 0)  -->
<svg version="1.1" id="Layer_1" xmlns="http://www.w3.org/2000/svg" xmlns:xlink="http://www.w3.org/1999/xlink" x="0px" y="0px"
	 viewBox="-285 286.3 24 24" style="enable-background:new -285 286.3 24 24;" xml:space="preserve">
<style type="text/css">
	.st0{fill:#FFFFFF;}
</style>
<title  id="simpleicons-facebook-icon">Facebook icon</title>
<path class="st0" d="M-262.3,286.3h-21.4c-0.7,0-1.3,0.6-1.3,1.3V309c0,0.7,0.6,1.3,1.3,1.3h11.5V301h-3.1v-3.6h3.1v-2.7
	c0-3.1,1.9-4.8,4.7-4.8c1.3,0,2.5,0.1,2.8,0.1v3.2h-1.9c-1.5,0-1.8,0.7-1.8,1.8v2.3h3.6l-0.5,3.6h-3.1v9.3h6.1
	c0.7,0,1.3-0.6,1.3-1.3v-21.4C-261,286.9-261.6,286.3-262.3,286.3"/>
</svg>
