<?xml version="1.0" encoding="utf-8"?>
<!-- Generator: Adobe Illustrator 19.0.0, SVG Export Plug-In . SVG Version: 6.00 Build 0)  -->
<svg version="1.1"
	 id="svg3168" xmlns:dc="http://purl.org/dc/elements/1.1/" xmlns:cc="http://creativecommons.org/ns#" xmlns:rdf="http://www.w3.org/1999/02/22-rdf-syntax-ns#" xmlns:svg="http://www.w3.org/2000/svg" xmlns:sodipodi="http://sodipodi.sourceforge.net/DTD/sodipodi-0.dtd" xmlns:inkscape="http://www.inkscape.org/namespaces/inkscape" inkscape:version="0.48.4 r9939" sodipodi:docname="New document 4"
	 xmlns="http://www.w3.org/2000/svg" xmlns:xlink="http://www.w3.org/1999/xlink" x="0px" y="0px" viewBox="-26 26.8 541.4 541.4"
	 style="enable-background:new -26 26.8 541.4 541.4;" xml:space="preserve">
<style type="text/css">
	.st0{fill:#FFFFFF;}
</style>
<sodipodi:namedview  fit-margin-left="0" fit-margin-top="0" showgrid="false" inkscape:cy="147.0455" inkscape:cx="-612.89609" inkscape:zoom="0.24748737" borderopacity="1.0" bordercolor="#666666" pagecolor="#ffffff" id="base" inkscape:window-maximized="1" inkscape:window-y="-8" inkscape:window-x="-8" inkscape:window-height="1018" inkscape:window-width="1920" fit-margin-bottom="0" fit-margin-right="0" inkscape:snap-center="true" inkscape:pageshadow="2" inkscape:pageopacity="0.0" inkscape:current-layer="layer1" inkscape:object-nodes="true" inkscape:document-units="px">
	</sodipodi:namedview>
<g>
	<path class="st0" d="M244.7,26.8L244.7,26.8C95.2,26.8-26,148-26,297.6V568h62.8v-62.8v-83.8V297.6c0-114.8,93.1-207.9,207.9-207.9
		s207.9,93.1,207.9,207.9c0,111.6-87.9,202.6-198.2,207.6c-35.1-0.3-64.9-6-78-14v-89.3c19.5,12.8,42.9,20.2,68,20.2
		c68.6,0,124.3-55.6,124.3-124.3S313,173.5,244.3,173.5S120,229.1,120,297.8V568h113.3c3.8,0.2,7.5,0.2,11.3,0.2
		c149.5,0,270.7-121.2,270.7-270.7S394.2,26.8,244.7,26.8z M244.7,505.4c-2.9,0-5.8-0.1-8.7-0.2h17.9
		C250.8,505.3,247.8,505.4,244.7,505.4z"/>
	<rect x="36.8" y="568" class="st0" width="83.2" height="0"/>
</g>
</svg>
