<?xml version="1.0" encoding="utf-8"?>
<!-- Generator: Adobe Illustrator 19.0.0, SVG Export Plug-In . SVG Version: 6.00 Build 0)  -->
<svg version="1.1" id="Layer_1" xmlns="http://www.w3.org/2000/svg" xmlns:xlink="http://www.w3.org/1999/xlink" x="0px" y="0px"
	 viewBox="-285 286.3 24 24" style="enable-background:new -285 286.3 24 24;" xml:space="preserve">
<style type="text/css">
	.st0{fill:#FFFFFF;}
</style>
<title  id="simpleicons-instagram-icon">Instagram icon</title>
<path class="st0" d="M-273,286.3c-3.3,0-3.7,0-4.9,0.1c-1.3,0.1-2.1,0.3-2.9,0.6c-0.8,0.3-1.5,0.7-2.1,1.4c-0.7,0.7-1.1,1.3-1.4,2.1
	c-0.3,0.8-0.5,1.6-0.6,2.9s-0.1,1.7-0.1,4.9s0,3.7,0.1,4.9c0.1,1.3,0.3,2.1,0.6,2.9c0.3,0.8,0.7,1.5,1.4,2.1
	c0.7,0.7,1.3,1.1,2.1,1.4c0.8,0.3,1.6,0.5,2.9,0.6s1.7,0.1,4.9,0.1s3.7,0,4.9-0.1c1.3-0.1,2.1-0.3,2.9-0.6c0.8-0.3,1.5-0.7,2.1-1.4
	c0.7-0.7,1.1-1.3,1.4-2.1c0.3-0.8,0.5-1.6,0.6-2.9s0.1-1.7,0.1-4.9s0-3.7-0.1-4.9c-0.1-1.3-0.3-2.1-0.6-2.9
	c-0.3-0.8-0.7-1.5-1.4-2.1c-0.7-0.7-1.3-1.1-2.1-1.4c-0.8-0.3-1.6-0.5-2.9-0.6C-269.3,286.3-269.7,286.3-273,286.3z M-273,288.4
	c3.2,0,3.6,0,4.9,0.1c1.2,0.1,1.8,0.2,2.2,0.4c0.6,0.2,1,0.5,1.4,0.9s0.7,0.8,0.9,1.4c0.2,0.4,0.4,1.1,0.4,2.2
	c0.1,1.3,0.1,1.6,0.1,4.9s0,3.6-0.1,4.9c-0.1,1.2-0.3,1.8-0.4,2.2c-0.2,0.6-0.5,1-0.9,1.4s-0.8,0.7-1.4,0.9
	c-0.4,0.2-1.1,0.4-2.2,0.4c-1.3,0.1-1.6,0.1-4.9,0.1c-3.2,0-3.6,0-4.9-0.1c-1.2-0.1-1.8-0.3-2.2-0.4c-0.6-0.2-1-0.5-1.4-0.9
	s-0.7-0.8-0.9-1.4c-0.2-0.4-0.4-1.1-0.4-2.2c0-1.3-0.1-1.6-0.1-4.8c0-3.2,0-3.6,0.1-4.9c0.1-1.2,0.3-1.8,0.4-2.2
	c0.2-0.6,0.5-1,0.9-1.4s0.8-0.7,1.4-0.9c0.4-0.2,1.1-0.4,2.2-0.4C-276.6,288.4-276.3,288.4-273,288.4L-273,288.4z M-273,292.1
	c-3.4,0-6.2,2.8-6.2,6.2c0,3.4,2.8,6.2,6.2,6.2c3.4,0,6.2-2.8,6.2-6.2S-269.6,292.1-273,292.1z M-273,302.3c-2.2,0-4-1.8-4-4
	s1.8-4,4-4s4,1.8,4,4S-270.8,302.3-273,302.3z M-265.2,291.9c0,0.8-0.6,1.4-1.4,1.4s-1.4-0.6-1.4-1.4s0.6-1.4,1.4-1.4
	C-265.8,290.4-265.2,291.1-265.2,291.9z"/>
</svg>
